PathFileType	4	(X/Y/Z)	/Users/itak/Documents/Research/Walk-IL/dataset/trc/00270_00010.trc
DataRate	CameraRate	NumFrames	NumMarkers	Units	OrigDataRate	OrigDataStartFrame	OrigNumFrames
100.000000	100.000000	4	55	mm	100.000000	342	456
Frame#	Time	RPSI			LPSI			L3			STRN			T10			C7			CLAV			RBAK			LBAK			LSHO			LUPA			LAEL			LAOL			LWTS			LWPS			LFRA			LIFD			LHPS			LHTS			RSHO			RUPA			RAEL			RAOL			RWTS			RWPS			RFRA			RIFD			RHTS			RHPS			RBHD			LFHD			RFHD			LBHD			LHIP			RASI			LKNE			LANK			LTIP			LTOE			LMT1			LMT5			LHEE			RKNE			RTHI			RANK			RTIP			RTOE			RMT1			RMT5			RHEE			RHIP			LTHI			LASI			*53			*54			
		X1	Y1	Z1	X2	Y2	Z2	X3	Y3	Z3	X4	Y4	Z4	X5	Y5	Z5	X6	Y6	Z6	X7	Y7	Z7	X8	Y8	Z8	X9	Y9	Z9	X10	Y10	Z10	X11	Y11	Z11	X12	Y12	Z12	X13	Y13	Z13	X14	Y14	Z14	X15	Y15	Z15	X16	Y16	Z16	X17	Y17	Z17	X18	Y18	Z18	X19	Y19	Z19	X20	Y20	Z20	X21	Y21	Z21	X22	Y22	Z22	X23	Y23	Z23	X24	Y24	Z24	X25	Y25	Z25	X26	Y26	Z26	X27	Y27	Z27	X28	Y28	Z28	X29	Y29	Z29	X30	Y30	Z30	X31	Y31	Z31	X32	Y32	Z32	X33	Y33	Z33	X34	Y34	Z34	X35	Y35	Z35	X36	Y36	Z36	X37	Y37	Z37	X38	Y38	Z38	X39	Y39	Z39	X40	Y40	Z40	X41	Y41	Z41	X42	Y42	Z42	X43	Y43	Z43	X44	Y44	Z44	X45	Y45	Z45	X46	Y46	Z46	X47	Y47	Z47	X48	Y48	Z48	X49	Y49	Z49	X50	Y50	Z50	X51	Y51	Z51	X52	Y52	Z52	X53	Y53	Z53	X54	Y54	Z54	X55	Y55	Z55	

343	3.42	-1039.283935546875	999.5112915039062	11.18290996551514	-1033.313598632812	997.9434814453125	-164.1718139648438	-1014.831909179688	1066.812622070312	-67.60185241699219	-770.3738403320312	1238.035522460938	-98.26351928710938	-1027.7255859375	1174.196166992188	-60.65253067016602	-995.4593505859375	1418.800903320312	-94.97645568847656	-833.5772094726562	1339.009155273438	-103.2657089233398	-1030.175170898438	1286.520385742188	-2.859188318252563	-1025.4052734375	1373.876953125	-191.7706604003906	-943.3923950195312	1379.960205078125	-256.4051208496094	-995.2769165039062	1265.38525390625	-317.3326416015625	-1027.449584960938	1069.328857421875	-325.691650390625	-1065.597778320312	1059.124755859375	-249.3792724609375	-955.3118286132812	843.8324584960938	-321.899658203125	-1014.904479980469	836.3060913085938	-362.8772583007812	-1030.276245117188	964.8960571289062	-342.3589477539062	-970.7870483398438	656.5169067382812	-327.7305603027344	-1017.717529296875	748.0904541015625	-363.9441528320312	-950.976806640625	744.826904296875	-356.4650268554688	-905.7664184570312	1410.746948242188	52.71174240112305	-898.8561401367188	1358.330810546875	123.8012008666992	-888.814697265625	1104.10693359375	209.2085266113281	-939.5580444335938	1081.2646484375	129.9038391113281	-751.818359375	906.4234619140625	158.2720489501953	-783.0280151367188	896.8309936523438	237.4900054931641	-854.2418212890625	1043.551513671875	223.3479919433594	-698.9559936523438	727.8031005859375	165.3381805419922	-694.0285034179688	802.0487670898438	174.8135681152344	-733.9829711914062	793.3563842773438	232.7169799804688	-975.8050537109375	1581.895874023438	-44.91860961914062	-822.8322143554688	1620.152709960938	-189.8317260742188	-813.6392822265625	1629.687866210938	-97.29240417480469	-988.3128051757812	1556.177001953125	-190.0917053222656	-959.870849609375	945.4046020507812	-254.7896728515625	-824.3631591796875	938.744873046875	51.69514465332031	-807.331298828125	495.6772766113281	-222.6110076904297	-831.9113159179688	37.36153411865234	-189.8135986328125	-826.4981689453125	263.9718933105469	-219.3114776611328	-637.4927368164062	59.03598403930664	-102.2290267944336	-712.7499389648438	52.63785552978516	-72.94138336181641	-705.1995849609375	46.20582962036133	-185.4024810791016	-887.8294067382812	37.04330825805664	-138.7104187011719	-996.4558715820312	464.894287109375	76.07191467285156	-923.1987915039062	718.6168823242188	107.6496505737305	-1230.314208984375	74.07390594482422	43.70585250854492	-1033.504516601562	343.9276733398438	62.35107421875	-1040.5283203125	51.05076217651367	-11.809250831604	-1096.956298828125	56.17157363891602	-52.03312301635742	-1128.577026367188	44.49771881103516	64.43489837646484	-1282.500244140625	87.49253845214844	-6.010083675384521	-948.5643310546875	934.76708984375	117.2094039916992	-840.9652709960938	633.7386474609375	-248.895263671875	-823.0645141601562	954.1475219726562	-200.1202239990234	nan	nan	nan	nan	nan	nan	
344	3.43	-1048.144653320312	999.418212890625	11.6196117401123	-1041.006713867188	996.9414672851562	-163.5916595458984	-1022.927978515625	1067.306884765625	-66.90730285644531	-776.6716918945312	1236.867797851562	-96.24660491943359	-1034.869018554688	1174.811279296875	-59.73550033569336	-1000.608520507812	1419.147338867188	-93.65003204345703	-839.1744995117188	1338.208862304688	-101.4828033447266	-1036.271118164062	1287.068359375	-1.703429222106934	-1030.668701171875	1374.508911132812	-190.6692657470703	-948.2929077148438	1379.937255859375	-255.0324096679688	-1000.08544921875	1265.197509765625	-315.9729309082031	-1031.8505859375	1068.954711914062	-324.0394287109375	-1071.029663085938	1059.046020507812	-248.1627197265625	-957.6185913085938	844.5004272460938	-318.559326171875	-1016.52099609375	836.210205078125	-360.4804382324219	-1033.588623046875	964.6016845703125	-340.3661499023438	-970.686767578125	657.010986328125	-324.0986328125	-1018.190856933594	747.9125366210938	-361.3049011230469	-951.6231689453125	745.4841918945312	-352.736328125	-911.103759765625	1410.345825195312	54.26745223999023	-904.2810668945312	1357.777099609375	125.2221450805664	-894.3330078125	1103.395874023438	210.4337921142578	-945.5947875976562	1080.760986328125	131.372802734375	-758.661865234375	904.9884643554688	158.3612060546875	-789.34130859375	895.5254516601562	237.741455078125	-859.7598876953125	1042.675048828125	224.1891784667969	-706.3242797851562	726.1564331054688	165.1436462402344	-701.2313232421875	800.3917846679688	174.5146179199219	-740.8389282226562	791.880615234375	232.6314697265625	-981.1948852539062	1581.188842773438	-42.85731506347656	-828.7335205078125	1620.590087890625	-187.9542999267578	-819.4808959960938	1629.9306640625	-95.39727020263672	-993.8892211914062	1555.855834960938	-188.1764526367188	-967.3718872070312	944.15625	-253.4692993164062	-833.3777465820312	938.5033569335938	53.73653411865234	-811.2522583007812	495.9699096679688	-221.8633270263672	-831.9887084960938	37.0906982421875	-189.9819793701172	-828.6643676757812	264.1290283203125	-219.1898040771484	-637.5641479492188	60.36489105224609	-103.366584777832	-712.7005615234375	53.49199295043945	-73.51511383056641	-705.1744384765625	46.05424880981445	-185.8271942138672	-887.8392333984375	36.8817024230957	-138.7914886474609	-1004.551696777344	465.0044860839844	76.97396850585938	-932.117919921875	718.884521484375	109.3347625732422	-1232.071044921875	70.72965240478516	43.01276397705078	-1039.832153320312	343.5623474121094	62.87128067016602	-1041.234619140625	51.24636077880859	-12.06887245178223	-1097.801635742188	55.37990951538086	-52.17570877075195	-1129.4580078125	43.71406173706055	64.17386627197266	-1284.371459960938	82.94912719726562	-6.890505790710449	-957.9910888671875	935.0923461914062	118.4102478027344	-846.4778442382812	633.4984741210938	-247.8598327636719	-830.5579833984375	953.3108520507812	-198.1737518310547	nan	nan	nan	nan	nan	nan	
345	3.44	-1057.0556640625	999.2080688476562	12.11843585968018	-1048.770751953125	995.7685546875	-162.9215087890625	-1031.113525390625	1067.790649414062	-66.22593688964844	-783.0301513671875	1235.64990234375	-94.28778076171875	-1042.149536132812	1175.544921875	-58.85615539550781	-1005.697692871094	1419.555419921875	-92.34746551513672	-844.8041381835938	1337.370239257812	-99.72023773193359	-1042.420776367188	1287.71630859375	-0.5678684115409851	-1035.864624023438	1375.255249023438	-189.6099853515625	-953.1116333007812	1379.984130859375	-253.6844177246094	-1004.838806152344	1265.11474609375	-314.6877136230469	-1036.255737304688	1068.6748046875	-322.4692077636719	-1076.596069335938	1059.097534179688	-247.1040649414062	-959.9571533203125	845.3547973632812	-315.1931762695312	-1018.0556640625	836.3007202148438	-358.1558532714844	-1036.887451171875	964.4652099609375	-338.4503479003906	-970.507568359375	657.71435546875	-320.4947509765625	-1018.52978515625	747.9332885742188	-358.7508850097656	-952.2178955078125	746.3535766601562	-348.9474792480469	-916.3863525390625	1409.900146484375	55.79111480712891	-909.7101440429688	1357.21533203125	126.622673034668	-900.0136108398438	1102.675903320312	211.6562805175781	-951.7503662109375	1080.243408203125	132.8310852050781	-765.6370849609375	903.550048828125	158.5719451904297	-795.8402099609375	894.2239990234375	238.0907287597656	-865.5065307617188	1041.767456054688	225.0901031494141	-713.6643676757812	724.5469360351562	165.1687469482422	-708.52294921875	798.769775390625	174.3812255859375	-747.821533203125	790.4031372070312	232.6633911132812	-986.483642578125	1580.423217773438	-40.75796890258789	-834.541015625	1621.043090820312	-186.0092926025391	-825.2383422851562	1630.157958984375	-93.43576049804688	-999.3598022460938	1555.519653320312	-186.2521514892578	-974.9590454101562	942.9031982421875	-252.1172332763672	-842.4225463867188	938.3602294921875	55.77924346923828	-815.3045654296875	496.2154541015625	-221.0937805175781	-832.08349609375	36.82688522338867	-190.1489410400391	-830.9097290039062	264.2613220214844	-219.0233001708984	-637.658935546875	61.69856262207031	-104.5376129150391	-712.7186279296875	54.36950302124023	-74.07492065429688	-705.1851806640625	45.92977142333984	-186.2169799804688	-887.8634033203125	36.70242309570312	-138.8743896484375	-1012.493957519531	465.1606140136719	77.77138519287109	-940.9448852539062	719.1889038085938	111.0118560791016	-1233.6376953125	67.59040832519531	42.13175582885742	-1046.04833984375	343.2965087890625	63.33130264282227	-1041.933471679688	51.38396453857422	-12.3621883392334	-1098.515014648438	54.47334289550781	-52.37860488891602	-1130.33056640625	43.04690170288086	63.84498977661133	-1285.983520507812	78.58735656738281	-7.994817733764648	-967.411865234375	935.4330444335938	119.6852416992188	-852.059814453125	633.1737060546875	-246.8446350097656	-838.1280517578125	952.4703979492188	-196.1947021484375	nan	nan	nan	nan	nan	nan	
346	3.45	-1065.976196289062	998.8840942382812	12.68702220916748	-1056.58984375	994.4387817382812	-162.1661987304688	-1039.35107421875	1068.258666992188	-65.56297302246094	-789.445556640625	1234.389892578125	-92.396728515625	-1049.550537109375	1176.387084960938	-58.01393127441406	-1010.739562988281	1420.0107421875	-91.06722259521484	-850.476806640625	1336.49560546875	-97.98255157470703	-1048.619262695312	1288.453735351562	0.5437929034233093	-1040.996704101562	1376.101928710938	-188.5864105224609	-957.8615112304688	1380.103759765625	-252.3574371337891	-1009.540466308594	1265.150390625	-313.478271484375	-1040.68994140625	1068.512451171875	-320.9735107421875	-1082.306640625	1059.298706054688	-246.19970703125	-962.3566284179688	846.4127807617188	-311.8312683105469	-1019.548950195312	836.6016845703125	-355.9065551757812	-1040.199096679688	964.5110473632812	-336.6122131347656	-970.2892456054688	658.64794921875	-316.9509582519531	-1018.786987304688	748.180908203125	-356.2908020019531	-952.8155517578125	747.456787109375	-345.1175231933594	-921.612548828125	1409.400512695312	57.27084350585938	-915.1492919921875	1356.648681640625	127.999626159668	-905.836181640625	1101.952392578125	212.8736877441406	-958.0199584960938	1079.720092773438	134.2872009277344	-772.7459106445312	902.1041870117188	158.8979797363281	-802.5197143554688	892.9304809570312	238.5384216308594	-871.4622802734375	1040.837280273438	226.0437469482422	-720.995361328125	722.9678955078125	165.4171295166016	-715.9051513671875	797.1719970703125	174.4118804931641	-754.9411010742188	788.9210205078125	232.8238372802734	-991.6904907226562	1579.604370117188	-38.63809204101562	-840.2457275390625	1621.493896484375	-183.9980773925781	-830.9005126953125	1630.345703125	-91.41275024414062	-1004.730102539062	1555.1708984375	-184.3247222900391	-982.61083984375	941.6693725585938	-250.7308197021484	-851.4691772460938	938.3223876953125	57.82682037353516	-819.4927368164062	496.406982421875	-220.3124084472656	-832.1961669921875	36.56758499145508	-190.3147888183594	-833.261474609375	264.3653259277344	-218.8204040527344	-637.794677734375	63.0629768371582	-105.7068023681641	-712.8314208984375	55.27486419677734	-74.6142578125	-705.2381591796875	45.85329818725586	-186.565185546875	-887.9093627929688	36.49703598022461	-138.966552734375	-1020.247436523438	465.3379821777344	78.50048065185547	-949.6583251953125	719.5181884765625	112.6739501953125	-1235.0107421875	64.64089202880859	41.09706878662109	-1052.139526367188	343.1080017089844	63.71653366088867	-1042.577392578125	51.46003341674805	-12.66629409790039	-1099.104614257812	53.48799896240234	-52.63562774658203	-1131.181762695312	42.4943962097168	63.45587921142578	-1287.35546875	74.39730834960938	-9.278454780578613	-976.8040771484375	935.7783813476562	121.0244598388672	-857.6637573242188	632.7900390625	-245.8690185546875	-845.7507934570312	951.650390625	-194.1809539794922	nan	nan	nan	nan	nan	nan	
